<?xml version="1.0" encoding="utf-8"?>
<!-- Generator: Adobe Illustrator 26.2.1, SVG Export Plug-In . SVG Version: 6.00 Build 0)  -->
<svg version="1.1" id="Layer_1" xmlns="http://www.w3.org/2000/svg" xmlns:xlink="http://www.w3.org/1999/xlink" x="0px" y="0px"
	 viewBox="0 0 1920 1080" style="enable-background:new 0 0 1920 1080;" xml:space="preserve">
<style type="text/css">
	.st0{fill:#FFFFFF;}
	.st1{fill:#C4252A;}
</style>
<g>
	<path class="st0" d="M827.2,568.9l-5.5-13.4h-25.3l-5.5,13.4h-13.4l25.6-60.2h12.1l25.6,60.2H827.2z M809.1,524.5l-7.9,19.4H817
		L809.1,524.5z"/>
	<path class="st0" d="M848.5,568.9v-59.8h13.2V557h29.8v11.9H848.5z"/>
	<path class="st0" d="M899.6,568.9v-59.8h13.2V557h29.8v11.9H899.6z"/>
	<path class="st1" d="M1011,568.9l-12.8-19.1h-10.3v19.1h-13.2v-59.8h27.3c7.1,0,12.7,1.7,16.6,5.2c4,3.5,5.9,8.3,5.9,14.5v0.2
		c0,4.8-1.2,8.8-3.5,11.8c-2.4,3-5.5,5.3-9.3,6.7l14.6,21.4H1011z M1011.3,529.5c0-2.8-0.9-5-2.7-6.4c-1.8-1.4-4.4-2.1-7.6-2.1
		h-13.1v17.2h13.3c3.2,0,5.7-0.8,7.5-2.3c1.7-1.5,2.6-3.6,2.6-6.2V529.5z"/>
	<path class="st1" d="M1034.8,568.9v-59.8h45v11.7h-32V533h28.2v11.7h-28.2v12.6h32.5v11.7H1034.8z"/>
	<path class="st1" d="M1138.1,563.7c-1.7,1.3-3.5,2.4-5.4,3.4c-2,0.9-4.1,1.7-6.5,2.1c-2.3,0.5-5,0.7-7.9,0.7
		c-4.4,0-8.5-0.8-12.2-2.4s-7-3.8-9.7-6.5c-2.7-2.8-4.9-6-6.4-9.8c-1.5-3.8-2.3-7.8-2.3-12V539c0-4.3,0.8-8.3,2.3-12
		c1.5-3.7,3.7-7,6.4-9.8c2.7-2.8,6-5,9.8-6.7c3.8-1.6,8-2.4,12.6-2.4c2.8,0,5.3,0.2,7.6,0.7c2.3,0.5,4.4,1.1,6.3,1.9
		c1.9,0.8,3.6,1.8,5.2,2.9c1.6,1.1,3.1,2.4,4.4,3.8l-8.4,9.7c-2.3-2.1-4.7-3.8-7.1-5c-2.4-1.2-5.1-1.8-8.2-1.8c-2.5,0-4.8,0.5-7,1.5
		c-2.1,1-4,2.3-5.5,4c-1.5,1.7-2.7,3.7-3.6,5.9c-0.9,2.3-1.3,4.7-1.3,7.2v0.2c0,2.6,0.4,5,1.3,7.3c0.9,2.3,2,4.3,3.5,6
		c1.5,1.7,3.3,3.1,5.5,4.1c2.1,1,4.5,1.5,7,1.5c3.4,0,6.3-0.6,8.7-1.9c2.4-1.3,4.7-3,7-5.1l8.4,8.5
		C1141.3,560.9,1139.7,562.4,1138.1,563.7z"/>
</g>
</svg>
