<svg xmlns="http://www.w3.org/2000/svg" width="135.205" height="135.206" viewBox="0 0 135.205 135.206">
  <path id="path" d="M338.405,1098.049c0,1.287.672,1.287,1.345,1.287h78.029v12.876H337.06a13.577,13.577,0,0,1-9.418-3.863,12.455,12.455,0,0,1-4.036-9.014,18.119,18.119,0,0,1,1.346-5.8l9.417-16.1-24.216-48.932H296.7v-12.876h22.2c4.036,8.37,8.072,16.74,12.78,25.753,1.346,1.932,3.364,6.439,7.4,14.165s6.727,13.521,8.745,18.027h47.086c15.471-27.041,24.216-42.492,25.561-45.069l11.435,6.439-25.561,45.068a12.589,12.589,0,0,1-11.435,6.438h-50.45l-6.054,10.3Zm-10.763,24.464a13.413,13.413,0,0,1,18.834,0,12.084,12.084,0,0,1,0,18.028,13.406,13.406,0,0,1-18.834,0,12.083,12.083,0,0,1,0-18.028Zm36.324-61.808v-19.314h-20.18v-12.878h20.18V1009.2H377.42v19.314H397.6v12.878H377.42v19.314Zm30.942,61.808a13.413,13.413,0,0,1,18.834,0,12.084,12.084,0,0,1,0,18.028,13.406,13.406,0,0,1-18.834,0,12.083,12.083,0,0,1,0-18.028Z" transform="translate(-296.7 -1009.2)" fill="#fff"/>
</svg>
