<?xml version="1.0" encoding="utf-8"?>
<!-- Generator: Adobe Illustrator 26.2.1, SVG Export Plug-In . SVG Version: 6.00 Build 0)  -->
<svg version="1.1" id="Layer_1" xmlns="http://www.w3.org/2000/svg" xmlns:xlink="http://www.w3.org/1999/xlink" x="0px" y="0px"
	 viewBox="0 0 1080 1080" style="enable-background:new 0 0 1080 1080;" xml:space="preserve">
<style type="text/css">
	.st0{fill:none;}
	.st1{fill:none;stroke:#000000;stroke-width:32;stroke-miterlimit:10;}
</style>
<g>
	<g transform="translate(72,72)">
		<g transform="translate(288,0) scale(0.36,0.36)">
			<g transform="">
				<rect x="-49.1" y="75" width="84.5" height="84.5"/>
			</g>
		</g>
		<g transform="translate(360,0) scale(0.36,0.36)">
			<g transform="">
				<rect x="-80.2" y="75" width="84.5" height="84.5"/>
			</g>
		</g>
		<g transform="translate(396,0) scale(0.36,0.36)">
			<g transform="">
				<rect x="-95.7" y="75" width="84.5" height="84.5"/>
			</g>
		</g>
		<g transform="translate(468,0) scale(0.36,0.36)">
			<g transform="">
				<rect x="-126.7" y="75" width="84.5" height="84.5"/>
			</g>
		</g>
		<g transform="translate(504,0) scale(0.36,0.36)">
			<g transform="">
				<rect x="-142.2" y="75" width="84.5" height="84.5"/>
			</g>
		</g>
		<g transform="translate(540,0) scale(0.36,0.36)">
			<g transform="">
				<rect x="-157.8" y="75" width="84.5" height="84.5"/>
			</g>
		</g>
		<g transform="translate(612,0) scale(0.36,0.36)">
			<g transform="">
				<rect x="-188.8" y="75" width="84.5" height="84.5"/>
			</g>
		</g>
		<g transform="translate(648,0) scale(0.36,0.36)">
			<g transform="">
				<rect x="-204.3" y="75" width="84.5" height="84.5"/>
			</g>
		</g>
		<g transform="translate(360,36) scale(0.36,0.36)">
			<g transform="">
				<rect x="-80.2" y="59.5" width="84.5" height="84.5"/>
			</g>
		</g>
		<g transform="translate(540,36) scale(0.36,0.36)">
			<g transform="">
				<rect x="-157.8" y="59.5" width="84.5" height="84.5"/>
			</g>
		</g>
		<g transform="translate(612,36) scale(0.36,0.36)">
			<g transform="">
				<rect x="-188.8" y="59.5" width="84.5" height="84.5"/>
			</g>
		</g>
		<g transform="translate(720,36) scale(0.36,0.36)">
			<g transform="">
				<rect x="-235.3" y="59.5" width="84.5" height="84.5"/>
			</g>
		</g>
		<g transform="translate(288,72) scale(0.36,0.36)">
			<g transform="">
				<rect x="-49.1" y="44" width="84.5" height="84.5"/>
			</g>
		</g>
		<g transform="translate(324,72) scale(0.36,0.36)">
			<g transform="">
				<rect x="-64.7" y="44" width="84.5" height="84.5"/>
			</g>
		</g>
		<g transform="translate(396,72) scale(0.36,0.36)">
			<g transform="">
				<rect x="-95.7" y="44" width="84.5" height="84.5"/>
			</g>
		</g>
		<g transform="translate(432,72) scale(0.36,0.36)">
			<g transform="">
				<rect x="-111.2" y="44" width="84.5" height="84.5"/>
			</g>
		</g>
		<g transform="translate(468,72) scale(0.36,0.36)">
			<g transform="">
				<rect x="-126.7" y="44" width="84.5" height="84.5"/>
			</g>
		</g>
		<g transform="translate(612,72) scale(0.36,0.36)">
			<g transform="">
				<rect x="-188.8" y="44" width="84.5" height="84.5"/>
			</g>
		</g>
		<g transform="translate(684,72) scale(0.36,0.36)">
			<g transform="">
				<rect x="-219.8" y="44" width="84.5" height="84.5"/>
			</g>
		</g>
		<g transform="translate(324,108) scale(0.36,0.36)">
			<g transform="">
				<rect x="-64.7" y="28.4" width="84.5" height="84.5"/>
			</g>
		</g>
		<g transform="translate(432,108) scale(0.36,0.36)">
			<g transform="">
				<rect x="-111.2" y="28.4" width="84.5" height="84.5"/>
			</g>
		</g>
		<g transform="translate(540,108) scale(0.36,0.36)">
			<g transform="">
				<rect x="-157.8" y="28.4" width="84.5" height="84.5"/>
			</g>
		</g>
		<g transform="translate(576,108) scale(0.36,0.36)">
			<g transform="">
				<rect x="-173.3" y="28.4" width="84.5" height="84.5"/>
			</g>
		</g>
		<g transform="translate(612,108) scale(0.36,0.36)">
			<g transform="">
				<rect x="-188.8" y="28.4" width="84.5" height="84.5"/>
			</g>
		</g>
		<g transform="translate(324,144) scale(0.36,0.36)">
			<g transform="">
				<rect x="-64.7" y="12.9" width="84.5" height="84.5"/>
			</g>
		</g>
		<g transform="translate(432,144) scale(0.36,0.36)">
			<g transform="">
				<rect x="-111.2" y="12.9" width="84.5" height="84.5"/>
			</g>
		</g>
		<g transform="translate(540,144) scale(0.36,0.36)">
			<g transform="">
				<rect x="-157.8" y="12.9" width="84.5" height="84.5"/>
			</g>
		</g>
		<g transform="translate(576,144) scale(0.36,0.36)">
			<g transform="">
				<rect x="-173.3" y="12.9" width="84.5" height="84.5"/>
			</g>
		</g>
		<g transform="translate(648,144) scale(0.36,0.36)">
			<g transform="">
				<rect x="-204.3" y="12.9" width="84.5" height="84.5"/>
			</g>
		</g>
		<g transform="translate(288,180) scale(0.36,0.36)">
			<g transform="">
				<rect x="-49.1" y="-2.6" width="84.5" height="84.5"/>
			</g>
		</g>
		<g transform="translate(360,180) scale(0.36,0.36)">
			<g transform="">
				<rect x="-80.2" y="-2.6" width="84.5" height="84.5"/>
			</g>
		</g>
		<g transform="translate(396,180) scale(0.36,0.36)">
			<g transform="">
				<rect x="-95.7" y="-2.6" width="84.5" height="84.5"/>
			</g>
		</g>
		<g transform="translate(432,180) scale(0.36,0.36)">
			<g transform="">
				<rect x="-111.2" y="-2.6" width="84.5" height="84.5"/>
			</g>
		</g>
		<g transform="translate(468,180) scale(0.36,0.36)">
			<g transform="">
				<rect x="-126.7" y="-2.6" width="84.5" height="84.5"/>
			</g>
		</g>
		<g transform="translate(504,180) scale(0.36,0.36)">
			<g transform="">
				<rect x="-142.2" y="-2.6" width="84.5" height="84.5"/>
			</g>
		</g>
		<g transform="translate(576,180) scale(0.36,0.36)">
			<g transform="">
				<rect x="-173.3" y="-2.6" width="84.5" height="84.5"/>
			</g>
		</g>
		<g transform="translate(612,180) scale(0.36,0.36)">
			<g transform="">
				<rect x="-188.8" y="-2.6" width="84.5" height="84.5"/>
			</g>
		</g>
		<g transform="translate(648,180) scale(0.36,0.36)">
			<g transform="">
				<rect x="-204.3" y="-2.6" width="84.5" height="84.5"/>
			</g>
		</g>
		<g transform="translate(288,216) scale(0.36,0.36)">
			<g transform="">
				<rect x="-49.1" y="-18.1" width="84.5" height="84.5"/>
			</g>
		</g>
		<g transform="translate(360,216) scale(0.36,0.36)">
			<g transform="">
				<rect x="-80.2" y="-18.1" width="84.5" height="84.5"/>
			</g>
		</g>
		<g transform="translate(432,216) scale(0.36,0.36)">
			<g transform="">
				<rect x="-111.2" y="-18.1" width="84.5" height="84.5"/>
			</g>
		</g>
		<g transform="translate(504,216) scale(0.36,0.36)">
			<g transform="">
				<rect x="-142.2" y="-18.1" width="84.5" height="84.5"/>
			</g>
		</g>
		<g transform="translate(576,216) scale(0.36,0.36)">
			<g transform="">
				<rect x="-173.3" y="-18.1" width="84.5" height="84.5"/>
			</g>
		</g>
		<g transform="translate(648,216) scale(0.36,0.36)">
			<g transform="">
				<rect x="-204.3" y="-18.1" width="84.5" height="84.5"/>
			</g>
		</g>
		<g transform="translate(720,216) scale(0.36,0.36)">
			<g transform="">
				<rect x="-235.3" y="-18.1" width="84.5" height="84.5"/>
			</g>
		</g>
		<g transform="translate(324,252) scale(0.36,0.36)">
			<g transform="">
				<rect x="-64.7" y="-33.6" width="84.5" height="84.5"/>
			</g>
		</g>
		<g transform="translate(468,252) scale(0.36,0.36)">
			<g transform="">
				<rect x="-126.7" y="-33.6" width="84.5" height="84.5"/>
			</g>
		</g>
		<g transform="translate(648,252) scale(0.36,0.36)">
			<g transform="">
				<rect x="-204.3" y="-33.6" width="84.5" height="84.5"/>
			</g>
		</g>
		<g transform="translate(684,252) scale(0.36,0.36)">
			<g transform="">
				<rect x="-219.8" y="-33.6" width="84.5" height="84.5"/>
			</g>
		</g>
		<g transform="translate(0,288) scale(0.36,0.36)">
			<g transform="">
				<rect x="75" y="-49.1" width="84.5" height="84.5"/>
			</g>
		</g>
		<g transform="translate(72,288) scale(0.36,0.36)">
			<g transform="">
				<rect x="44" y="-49.1" width="84.5" height="84.5"/>
			</g>
		</g>
		<g transform="translate(216,288) scale(0.36,0.36)">
			<g transform="">
				<rect x="-18.1" y="-49.1" width="84.5" height="84.5"/>
			</g>
		</g>
		<g transform="translate(252,288) scale(0.36,0.36)">
			<g transform="">
				<rect x="-33.6" y="-49.1" width="84.5" height="84.5"/>
			</g>
		</g>
		<g transform="translate(396,288) scale(0.36,0.36)">
			<g transform="">
				<rect x="-95.7" y="-49.1" width="84.5" height="84.5"/>
			</g>
		</g>
		<g transform="translate(432,288) scale(0.36,0.36)">
			<g transform="">
				<rect x="-111.2" y="-49.1" width="84.5" height="84.5"/>
			</g>
		</g>
		<g transform="translate(468,288) scale(0.36,0.36)">
			<g transform="">
				<rect x="-126.7" y="-49.1" width="84.5" height="84.5"/>
			</g>
		</g>
		<g transform="translate(540,288) scale(0.36,0.36)">
			<g transform="">
				<rect x="-157.8" y="-49.1" width="84.5" height="84.5"/>
			</g>
		</g>
		<g transform="translate(576,288) scale(0.36,0.36)">
			<g transform="">
				<rect x="-173.3" y="-49.1" width="84.5" height="84.5"/>
			</g>
		</g>
		<g transform="translate(684,288) scale(0.36,0.36)">
			<g transform="">
				<rect x="-219.8" y="-49.1" width="84.5" height="84.5"/>
			</g>
		</g>
		<g transform="translate(828,288) scale(0.36,0.36)">
			<g transform="">
				<rect x="-281.9" y="-49.1" width="84.5" height="84.5"/>
			</g>
		</g>
		<g transform="translate(936,288) scale(0.36,0.36)">
			<g transform="">
				<rect x="-328.4" y="-49.1" width="84.5" height="84.5"/>
			</g>
		</g>
		<g transform="translate(1008,288) scale(0.36,0.36)">
			<g transform="">
				<rect x="-359.5" y="-49.1" width="84.5" height="84.5"/>
			</g>
		</g>
		<g transform="translate(0,324) scale(0.36,0.36)">
			<g transform="">
				<rect x="75" y="-64.7" width="84.5" height="84.5"/>
			</g>
		</g>
		<g transform="translate(36,324) scale(0.36,0.36)">
			<g transform="">
				<rect x="59.5" y="-64.7" width="84.5" height="84.5"/>
			</g>
		</g>
		<g transform="translate(72,324) scale(0.36,0.36)">
			<g transform="">
				<rect x="44" y="-64.7" width="84.5" height="84.5"/>
			</g>
		</g>
		<g transform="translate(144,324) scale(0.36,0.36)">
			<g transform="">
				<rect x="12.9" y="-64.7" width="84.5" height="84.5"/>
			</g>
		</g>
		<g transform="translate(252,324) scale(0.36,0.36)">
			<g transform="">
				<rect x="-33.6" y="-64.7" width="84.5" height="84.5"/>
			</g>
		</g>
		<g transform="translate(360,324) scale(0.36,0.36)">
			<g transform="">
				<rect x="-80.2" y="-64.7" width="84.5" height="84.5"/>
			</g>
		</g>
		<g transform="translate(576,324) scale(0.36,0.36)">
			<g transform="">
				<rect x="-173.3" y="-64.7" width="84.5" height="84.5"/>
			</g>
		</g>
		<g transform="translate(648,324) scale(0.36,0.36)">
			<g transform="">
				<rect x="-204.3" y="-64.7" width="84.5" height="84.5"/>
			</g>
		</g>
		<g transform="translate(684,324) scale(0.36,0.36)">
			<g transform="">
				<rect x="-219.8" y="-64.7" width="84.5" height="84.5"/>
			</g>
		</g>
		<g transform="translate(720,324) scale(0.36,0.36)">
			<g transform="">
				<rect x="-235.3" y="-64.7" width="84.5" height="84.5"/>
			</g>
		</g>
		<g transform="translate(792,324) scale(0.36,0.36)">
			<g transform="">
				<rect x="-266.4" y="-64.7" width="84.5" height="84.5"/>
			</g>
		</g>
		<g transform="translate(828,324) scale(0.36,0.36)">
			<g transform="">
				<rect x="-281.9" y="-64.7" width="84.5" height="84.5"/>
			</g>
		</g>
		<g transform="translate(972,324) scale(0.36,0.36)">
			<g transform="">
				<rect x="-344" y="-64.7" width="84.5" height="84.5"/>
			</g>
		</g>
		<g transform="translate(1008,324) scale(0.36,0.36)">
			<g transform="">
				<rect x="-359.5" y="-64.7" width="84.5" height="84.5"/>
			</g>
		</g>
		<g transform="translate(0,360) scale(0.36,0.36)">
			<g transform="">
				<rect x="75" y="-80.2" width="84.5" height="84.5"/>
			</g>
		</g>
		<g transform="translate(144,360) scale(0.36,0.36)">
			<g transform="">
				<rect x="12.9" y="-80.2" width="84.5" height="84.5"/>
			</g>
		</g>
		<g transform="translate(180,360) scale(0.36,0.36)">
			<g transform="">
				<rect x="-2.6" y="-80.2" width="84.5" height="84.5"/>
			</g>
		</g>
		<g transform="translate(216,360) scale(0.36,0.36)">
			<g transform="">
				<rect x="-18.1" y="-80.2" width="84.5" height="84.5"/>
			</g>
		</g>
		<g transform="translate(252,360) scale(0.36,0.36)">
			<g transform="">
				<rect x="-33.6" y="-80.2" width="84.5" height="84.5"/>
			</g>
		</g>
		<g transform="translate(288,360) scale(0.36,0.36)">
			<g transform="">
				<rect x="-49.1" y="-80.2" width="84.5" height="84.5"/>
			</g>
		</g>
		<g transform="translate(396,360) scale(0.36,0.36)">
			<g transform="">
				<rect x="-95.7" y="-80.2" width="84.5" height="84.5"/>
			</g>
		</g>
		<g transform="translate(468,360) scale(0.36,0.36)">
			<g transform="">
				<rect x="-126.7" y="-80.2" width="84.5" height="84.5"/>
			</g>
		</g>
		<g transform="translate(504,360) scale(0.36,0.36)">
			<g transform="">
				<rect x="-142.2" y="-80.2" width="84.5" height="84.5"/>
			</g>
		</g>
		<g transform="translate(576,360) scale(0.36,0.36)">
			<g transform="">
				<rect x="-173.3" y="-80.2" width="84.5" height="84.5"/>
			</g>
		</g>
		<g transform="translate(648,360) scale(0.36,0.36)">
			<g transform="">
				<rect x="-204.3" y="-80.2" width="84.5" height="84.5"/>
			</g>
		</g>
		<g transform="translate(684,360) scale(0.36,0.36)">
			<g transform="">
				<rect x="-219.8" y="-80.2" width="84.5" height="84.5"/>
			</g>
		</g>
		<g transform="translate(720,360) scale(0.36,0.36)">
			<g transform="">
				<rect x="-235.3" y="-80.2" width="84.5" height="84.5"/>
			</g>
		</g>
		<g transform="translate(756,360) scale(0.36,0.36)">
			<g transform="">
				<rect x="-250.9" y="-80.2" width="84.5" height="84.5"/>
			</g>
		</g>
		<g transform="translate(828,360) scale(0.36,0.36)">
			<g transform="">
				<rect x="-281.9" y="-80.2" width="84.5" height="84.5"/>
			</g>
		</g>
		<g transform="translate(864,360) scale(0.36,0.36)">
			<g transform="">
				<rect x="-297.4" y="-80.2" width="84.5" height="84.5"/>
			</g>
		</g>
		<g transform="translate(900,360) scale(0.36,0.36)">
			<g transform="">
				<rect x="-312.9" y="-80.2" width="84.5" height="84.5"/>
			</g>
		</g>
		<g transform="translate(936,360) scale(0.36,0.36)">
			<g transform="">
				<rect x="-328.4" y="-80.2" width="84.5" height="84.5"/>
			</g>
		</g>
		<g transform="translate(1008,360) scale(0.36,0.36)">
			<g transform="">
				<rect x="-359.5" y="-80.2" width="84.5" height="84.5"/>
			</g>
		</g>
		<g transform="translate(0,396) scale(0.36,0.36)">
			<g transform="">
				<rect x="75" y="-95.7" width="84.5" height="84.5"/>
			</g>
		</g>
		<g transform="translate(288,396) scale(0.36,0.36)">
			<g transform="">
				<rect x="-49.1" y="-95.7" width="84.5" height="84.5"/>
			</g>
		</g>
		<g transform="translate(324,396) scale(0.36,0.36)">
			<g transform="">
				<rect x="-64.7" y="-95.7" width="84.5" height="84.5"/>
			</g>
		</g>
		<g transform="translate(432,396) scale(0.36,0.36)">
			<g transform="">
				<rect x="-111.2" y="-95.7" width="84.5" height="84.5"/>
			</g>
		</g>
		<g transform="translate(504,396) scale(0.36,0.36)">
			<g transform="">
				<rect x="-142.2" y="-95.7" width="84.5" height="84.5"/>
			</g>
		</g>
		<g transform="translate(540,396) scale(0.36,0.36)">
			<g transform="">
				<rect x="-157.8" y="-95.7" width="84.5" height="84.5"/>
			</g>
		</g>
		<g transform="translate(576,396) scale(0.36,0.36)">
			<g transform="">
				<rect x="-173.3" y="-95.7" width="84.5" height="84.5"/>
			</g>
		</g>
		<g transform="translate(648,396) scale(0.36,0.36)">
			<g transform="">
				<rect x="-204.3" y="-95.7" width="84.5" height="84.5"/>
			</g>
		</g>
		<g transform="translate(720,396) scale(0.36,0.36)">
			<g transform="">
				<rect x="-235.3" y="-95.7" width="84.5" height="84.5"/>
			</g>
		</g>
		<g transform="translate(828,396) scale(0.36,0.36)">
			<g transform="">
				<rect x="-281.9" y="-95.7" width="84.5" height="84.5"/>
			</g>
		</g>
		<g transform="translate(864,396) scale(0.36,0.36)">
			<g transform="">
				<rect x="-297.4" y="-95.7" width="84.5" height="84.5"/>
			</g>
		</g>
		<g transform="translate(0,432) scale(0.36,0.36)">
			<g transform="">
				<rect x="75" y="-111.2" width="84.5" height="84.5"/>
			</g>
		</g>
		<g transform="translate(72,432) scale(0.36,0.36)">
			<g transform="">
				<rect x="44" y="-111.2" width="84.5" height="84.5"/>
			</g>
		</g>
		<g transform="translate(144,432) scale(0.36,0.36)">
			<g transform="">
				<rect x="12.9" y="-111.2" width="84.5" height="84.5"/>
			</g>
		</g>
		<g transform="translate(216,432) scale(0.36,0.36)">
			<g transform="">
				<rect x="-18.1" y="-111.2" width="84.5" height="84.5"/>
			</g>
		</g>
		<g transform="translate(324,432) scale(0.36,0.36)">
			<g transform="">
				<rect x="-64.7" y="-111.2" width="84.5" height="84.5"/>
			</g>
		</g>
		<g transform="translate(360,432) scale(0.36,0.36)">
			<g transform="">
				<rect x="-80.2" y="-111.2" width="84.5" height="84.5"/>
			</g>
		</g>
		<g transform="translate(396,432) scale(0.36,0.36)">
			<g transform="">
				<rect x="-95.7" y="-111.2" width="84.5" height="84.5"/>
			</g>
		</g>
		<g transform="translate(468,432) scale(0.36,0.36)">
			<g transform="">
				<rect x="-126.7" y="-111.2" width="84.5" height="84.5"/>
			</g>
		</g>
		<g transform="translate(504,432) scale(0.36,0.36)">
			<g transform="">
				<rect x="-142.2" y="-111.2" width="84.5" height="84.5"/>
			</g>
		</g>
		<g transform="translate(720,432) scale(0.36,0.36)">
			<g transform="">
				<rect x="-235.3" y="-111.2" width="84.5" height="84.5"/>
			</g>
		</g>
		<g transform="translate(792,432) scale(0.36,0.36)">
			<g transform="">
				<rect x="-266.4" y="-111.2" width="84.5" height="84.5"/>
			</g>
		</g>
		<g transform="translate(828,432) scale(0.36,0.36)">
			<g transform="">
				<rect x="-281.9" y="-111.2" width="84.5" height="84.5"/>
			</g>
		</g>
		<g transform="translate(1008,432) scale(0.36,0.36)">
			<g transform="">
				<rect x="-359.5" y="-111.2" width="84.5" height="84.5"/>
			</g>
		</g>
		<g transform="translate(0,468) scale(0.36,0.36)">
			<g transform="">
				<rect x="75" y="-126.7" width="84.5" height="84.5"/>
			</g>
		</g>
		<g transform="translate(252,468) scale(0.36,0.36)">
			<g transform="">
				<rect x="-33.6" y="-126.7" width="84.5" height="84.5"/>
			</g>
		</g>
		<g transform="translate(324,468) scale(0.36,0.36)">
			<g transform="">
				<rect x="-64.7" y="-126.7" width="84.5" height="84.5"/>
			</g>
		</g>
		<g transform="translate(360,468) scale(0.36,0.36)">
			<g transform="">
				<rect x="-80.2" y="-126.7" width="84.5" height="84.5"/>
			</g>
		</g>
		<g transform="translate(468,468) scale(0.36,0.36)">
			<g transform="">
				<rect x="-126.7" y="-126.7" width="84.5" height="84.5"/>
			</g>
		</g>
		<g transform="translate(504,468) scale(0.36,0.36)">
			<g transform="">
				<rect x="-142.2" y="-126.7" width="84.5" height="84.5"/>
			</g>
		</g>
		<g transform="translate(612,468) scale(0.36,0.36)">
			<g transform="">
				<rect x="-188.8" y="-126.7" width="84.5" height="84.5"/>
			</g>
		</g>
		<g transform="translate(684,468) scale(0.36,0.36)">
			<g transform="">
				<rect x="-219.8" y="-126.7" width="84.5" height="84.5"/>
			</g>
		</g>
		<g transform="translate(720,468) scale(0.36,0.36)">
			<g transform="">
				<rect x="-235.3" y="-126.7" width="84.5" height="84.5"/>
			</g>
		</g>
		<g transform="translate(792,468) scale(0.36,0.36)">
			<g transform="">
				<rect x="-266.4" y="-126.7" width="84.5" height="84.5"/>
			</g>
		</g>
		<g transform="translate(828,468) scale(0.36,0.36)">
			<g transform="">
				<rect x="-281.9" y="-126.7" width="84.5" height="84.5"/>
			</g>
		</g>
		<g transform="translate(936,468) scale(0.36,0.36)">
			<g transform="">
				<rect x="-328.4" y="-126.7" width="84.5" height="84.5"/>
			</g>
		</g>
		<g transform="translate(972,468) scale(0.36,0.36)">
			<g transform="">
				<rect x="-344" y="-126.7" width="84.5" height="84.5"/>
			</g>
		</g>
		<g transform="translate(1008,468) scale(0.36,0.36)">
			<g transform="">
				<rect x="-359.5" y="-126.7" width="84.5" height="84.5"/>
			</g>
		</g>
		<g transform="translate(0,504) scale(0.36,0.36)">
			<g transform="">
				<rect x="75" y="-142.2" width="84.5" height="84.5"/>
			</g>
		</g>
		<g transform="translate(36,504) scale(0.36,0.36)">
			<g transform="">
				<rect x="59.5" y="-142.2" width="84.5" height="84.5"/>
			</g>
		</g>
		<g transform="translate(108,504) scale(0.36,0.36)">
			<g transform="">
				<rect x="28.4" y="-142.2" width="84.5" height="84.5"/>
			</g>
		</g>
		<g transform="translate(144,504) scale(0.36,0.36)">
			<g transform="">
				<rect x="12.9" y="-142.2" width="84.5" height="84.5"/>
			</g>
		</g>
		<g transform="translate(216,504) scale(0.36,0.36)">
			<g transform="">
				<rect x="-18.1" y="-142.2" width="84.5" height="84.5"/>
			</g>
		</g>
		<g transform="translate(252,504) scale(0.36,0.36)">
			<g transform="">
				<rect x="-33.6" y="-142.2" width="84.5" height="84.5"/>
			</g>
		</g>
		<g transform="translate(324,504) scale(0.36,0.36)">
			<g transform="">
				<rect x="-64.7" y="-142.2" width="84.5" height="84.5"/>
			</g>
		</g>
		<g transform="translate(360,504) scale(0.36,0.36)">
			<g transform="">
				<rect x="-80.2" y="-142.2" width="84.5" height="84.5"/>
			</g>
		</g>
		<g transform="translate(396,504) scale(0.36,0.36)">
			<g transform="">
				<rect x="-95.7" y="-142.2" width="84.5" height="84.5"/>
			</g>
		</g>
		<g transform="translate(540,504) scale(0.36,0.36)">
			<g transform="">
				<rect x="-157.8" y="-142.2" width="84.5" height="84.5"/>
			</g>
		</g>
		<g transform="translate(612,504) scale(0.36,0.36)">
			<g transform="">
				<rect x="-188.8" y="-142.2" width="84.5" height="84.5"/>
			</g>
		</g>
		<g transform="translate(648,504) scale(0.36,0.36)">
			<g transform="">
				<rect x="-204.3" y="-142.2" width="84.5" height="84.5"/>
			</g>
		</g>
		<g transform="translate(684,504) scale(0.36,0.36)">
			<g transform="">
				<rect x="-219.8" y="-142.2" width="84.5" height="84.5"/>
			</g>
		</g>
		<g transform="translate(720,504) scale(0.36,0.36)">
			<g transform="">
				<rect x="-235.3" y="-142.2" width="84.5" height="84.5"/>
			</g>
		</g>
		<g transform="translate(864,504) scale(0.36,0.36)">
			<g transform="">
				<rect x="-297.4" y="-142.2" width="84.5" height="84.5"/>
			</g>
		</g>
		<g transform="translate(900,504) scale(0.36,0.36)">
			<g transform="">
				<rect x="-312.9" y="-142.2" width="84.5" height="84.5"/>
			</g>
		</g>
		<g transform="translate(1008,504) scale(0.36,0.36)">
			<g transform="">
				<rect x="-359.5" y="-142.2" width="84.5" height="84.5"/>
			</g>
		</g>
		<g transform="translate(36,540) scale(0.36,0.36)">
			<g transform="">
				<rect x="59.5" y="-157.8" width="84.5" height="84.5"/>
			</g>
		</g>
		<g transform="translate(108,540) scale(0.36,0.36)">
			<g transform="">
				<rect x="28.4" y="-157.8" width="84.5" height="84.5"/>
			</g>
		</g>
		<g transform="translate(144,540) scale(0.36,0.36)">
			<g transform="">
				<rect x="12.9" y="-157.8" width="84.5" height="84.5"/>
			</g>
		</g>
		<g transform="translate(180,540) scale(0.36,0.36)">
			<g transform="">
				<rect x="-2.6" y="-157.8" width="84.5" height="84.5"/>
			</g>
		</g>
		<g transform="translate(252,540) scale(0.36,0.36)">
			<g transform="">
				<rect x="-33.6" y="-157.8" width="84.5" height="84.5"/>
			</g>
		</g>
		<g transform="translate(396,540) scale(0.36,0.36)">
			<g transform="">
				<rect x="-95.7" y="-157.8" width="84.5" height="84.5"/>
			</g>
		</g>
		<g transform="translate(432,540) scale(0.36,0.36)">
			<g transform="">
				<rect x="-111.2" y="-157.8" width="84.5" height="84.5"/>
			</g>
		</g>
		<g transform="translate(468,540) scale(0.36,0.36)">
			<g transform="">
				<rect x="-126.7" y="-157.8" width="84.5" height="84.5"/>
			</g>
		</g>
		<g transform="translate(720,540) scale(0.36,0.36)">
			<g transform="">
				<rect x="-235.3" y="-157.8" width="84.5" height="84.5"/>
			</g>
		</g>
		<g transform="translate(756,540) scale(0.36,0.36)">
			<g transform="">
				<rect x="-250.9" y="-157.8" width="84.5" height="84.5"/>
			</g>
		</g>
		<g transform="translate(792,540) scale(0.36,0.36)">
			<g transform="">
				<rect x="-266.4" y="-157.8" width="84.5" height="84.5"/>
			</g>
		</g>
		<g transform="translate(0,576) scale(0.36,0.36)">
			<g transform="">
				<rect x="75" y="-173.3" width="84.5" height="84.5"/>
			</g>
		</g>
		<g transform="translate(216,576) scale(0.36,0.36)">
			<g transform="">
				<rect x="-18.1" y="-173.3" width="84.5" height="84.5"/>
			</g>
		</g>
		<g transform="translate(324,576) scale(0.36,0.36)">
			<g transform="">
				<rect x="-64.7" y="-173.3" width="84.5" height="84.5"/>
			</g>
		</g>
		<g transform="translate(360,576) scale(0.36,0.36)">
			<g transform="">
				<rect x="-80.2" y="-173.3" width="84.5" height="84.5"/>
			</g>
		</g>
		<g transform="translate(468,576) scale(0.36,0.36)">
			<g transform="">
				<rect x="-126.7" y="-173.3" width="84.5" height="84.5"/>
			</g>
		</g>
		<g transform="translate(540,576) scale(0.36,0.36)">
			<g transform="">
				<rect x="-157.8" y="-173.3" width="84.5" height="84.5"/>
			</g>
		</g>
		<g transform="translate(576,576) scale(0.36,0.36)">
			<g transform="">
				<rect x="-173.3" y="-173.3" width="84.5" height="84.5"/>
			</g>
		</g>
		<g transform="translate(720,576) scale(0.36,0.36)">
			<g transform="">
				<rect x="-235.3" y="-173.3" width="84.5" height="84.5"/>
			</g>
		</g>
		<g transform="translate(792,576) scale(0.36,0.36)">
			<g transform="">
				<rect x="-266.4" y="-173.3" width="84.5" height="84.5"/>
			</g>
		</g>
		<g transform="translate(828,576) scale(0.36,0.36)">
			<g transform="">
				<rect x="-281.9" y="-173.3" width="84.5" height="84.5"/>
			</g>
		</g>
		<g transform="translate(900,576) scale(0.36,0.36)">
			<g transform="">
				<rect x="-312.9" y="-173.3" width="84.5" height="84.5"/>
			</g>
		</g>
		<g transform="translate(1008,576) scale(0.36,0.36)">
			<g transform="">
				<rect x="-359.5" y="-173.3" width="84.5" height="84.5"/>
			</g>
		</g>
		<g transform="translate(36,612) scale(0.36,0.36)">
			<g transform="">
				<rect x="59.5" y="-188.8" width="84.5" height="84.5"/>
			</g>
		</g>
		<g transform="translate(72,612) scale(0.36,0.36)">
			<g transform="">
				<rect x="44" y="-188.8" width="84.5" height="84.5"/>
			</g>
		</g>
		<g transform="translate(108,612) scale(0.36,0.36)">
			<g transform="">
				<rect x="28.4" y="-188.8" width="84.5" height="84.5"/>
			</g>
		</g>
		<g transform="translate(144,612) scale(0.36,0.36)">
			<g transform="">
				<rect x="12.9" y="-188.8" width="84.5" height="84.5"/>
			</g>
		</g>
		<g transform="translate(252,612) scale(0.36,0.36)">
			<g transform="">
				<rect x="-33.6" y="-188.8" width="84.5" height="84.5"/>
			</g>
		</g>
		<g transform="translate(360,612) scale(0.36,0.36)">
			<g transform="">
				<rect x="-80.2" y="-188.8" width="84.5" height="84.5"/>
			</g>
		</g>
		<g transform="translate(396,612) scale(0.36,0.36)">
			<g transform="">
				<rect x="-95.7" y="-188.8" width="84.5" height="84.5"/>
			</g>
		</g>
		<g transform="translate(432,612) scale(0.36,0.36)">
			<g transform="">
				<rect x="-111.2" y="-188.8" width="84.5" height="84.5"/>
			</g>
		</g>
		<g transform="translate(576,612) scale(0.36,0.36)">
			<g transform="">
				<rect x="-173.3" y="-188.8" width="84.5" height="84.5"/>
			</g>
		</g>
		<g transform="translate(612,612) scale(0.36,0.36)">
			<g transform="">
				<rect x="-188.8" y="-188.8" width="84.5" height="84.5"/>
			</g>
		</g>
		<g transform="translate(684,612) scale(0.36,0.36)">
			<g transform="">
				<rect x="-219.8" y="-188.8" width="84.5" height="84.5"/>
			</g>
		</g>
		<g transform="translate(720,612) scale(0.36,0.36)">
			<g transform="">
				<rect x="-235.3" y="-188.8" width="84.5" height="84.5"/>
			</g>
		</g>
		<g transform="translate(756,612) scale(0.36,0.36)">
			<g transform="">
				<rect x="-250.9" y="-188.8" width="84.5" height="84.5"/>
			</g>
		</g>
		<g transform="translate(792,612) scale(0.36,0.36)">
			<g transform="">
				<rect x="-266.4" y="-188.8" width="84.5" height="84.5"/>
			</g>
		</g>
		<g transform="translate(828,612) scale(0.36,0.36)">
			<g transform="">
				<rect x="-281.9" y="-188.8" width="84.5" height="84.5"/>
			</g>
		</g>
		<g transform="translate(900,612) scale(0.36,0.36)">
			<g transform="">
				<rect x="-312.9" y="-188.8" width="84.5" height="84.5"/>
			</g>
		</g>
		<g transform="translate(936,612) scale(0.36,0.36)">
			<g transform="">
				<rect x="-328.4" y="-188.8" width="84.5" height="84.5"/>
			</g>
		</g>
		<g transform="translate(972,612) scale(0.36,0.36)">
			<g transform="">
				<rect x="-344" y="-188.8" width="84.5" height="84.5"/>
			</g>
		</g>
		<g transform="translate(1008,612) scale(0.36,0.36)">
			<g transform="">
				<rect x="-359.5" y="-188.8" width="84.5" height="84.5"/>
			</g>
		</g>
		<g transform="translate(0,648) scale(0.36,0.36)">
			<g transform="">
				<rect x="75" y="-204.3" width="84.5" height="84.5"/>
			</g>
		</g>
		<g transform="translate(36,648) scale(0.36,0.36)">
			<g transform="">
				<rect x="59.5" y="-204.3" width="84.5" height="84.5"/>
			</g>
		</g>
		<g transform="translate(72,648) scale(0.36,0.36)">
			<g transform="">
				<rect x="44" y="-204.3" width="84.5" height="84.5"/>
			</g>
		</g>
		<g transform="translate(216,648) scale(0.36,0.36)">
			<g transform="">
				<rect x="-18.1" y="-204.3" width="84.5" height="84.5"/>
			</g>
		</g>
		<g transform="translate(252,648) scale(0.36,0.36)">
			<g transform="">
				<rect x="-33.6" y="-204.3" width="84.5" height="84.5"/>
			</g>
		</g>
		<g transform="translate(288,648) scale(0.36,0.36)">
			<g transform="">
				<rect x="-49.1" y="-204.3" width="84.5" height="84.5"/>
			</g>
		</g>
		<g transform="translate(432,648) scale(0.36,0.36)">
			<g transform="">
				<rect x="-111.2" y="-204.3" width="84.5" height="84.5"/>
			</g>
		</g>
		<g transform="translate(468,648) scale(0.36,0.36)">
			<g transform="">
				<rect x="-126.7" y="-204.3" width="84.5" height="84.5"/>
			</g>
		</g>
		<g transform="translate(504,648) scale(0.36,0.36)">
			<g transform="">
				<rect x="-142.2" y="-204.3" width="84.5" height="84.5"/>
			</g>
		</g>
		<g transform="translate(576,648) scale(0.36,0.36)">
			<g transform="">
				<rect x="-173.3" y="-204.3" width="84.5" height="84.5"/>
			</g>
		</g>
		<g transform="translate(684,648) scale(0.36,0.36)">
			<g transform="">
				<rect x="-219.8" y="-204.3" width="84.5" height="84.5"/>
			</g>
		</g>
		<g transform="translate(756,648) scale(0.36,0.36)">
			<g transform="">
				<rect x="-250.9" y="-204.3" width="84.5" height="84.5"/>
			</g>
		</g>
		<g transform="translate(792,648) scale(0.36,0.36)">
			<g transform="">
				<rect x="-266.4" y="-204.3" width="84.5" height="84.5"/>
			</g>
		</g>
		<g transform="translate(1008,648) scale(0.36,0.36)">
			<g transform="">
				<rect x="-359.5" y="-204.3" width="84.5" height="84.5"/>
			</g>
		</g>
		<g transform="translate(72,684) scale(0.36,0.36)">
			<g transform="">
				<rect x="44" y="-219.8" width="84.5" height="84.5"/>
			</g>
		</g>
		<g transform="translate(144,684) scale(0.36,0.36)">
			<g transform="">
				<rect x="12.9" y="-219.8" width="84.5" height="84.5"/>
			</g>
		</g>
		<g transform="translate(180,684) scale(0.36,0.36)">
			<g transform="">
				<rect x="-2.6" y="-219.8" width="84.5" height="84.5"/>
			</g>
		</g>
		<g transform="translate(360,684) scale(0.36,0.36)">
			<g transform="">
				<rect x="-80.2" y="-219.8" width="84.5" height="84.5"/>
			</g>
		</g>
		<g transform="translate(396,684) scale(0.36,0.36)">
			<g transform="">
				<rect x="-95.7" y="-219.8" width="84.5" height="84.5"/>
			</g>
		</g>
		<g transform="translate(504,684) scale(0.36,0.36)">
			<g transform="">
				<rect x="-142.2" y="-219.8" width="84.5" height="84.5"/>
			</g>
		</g>
		<g transform="translate(540,684) scale(0.36,0.36)">
			<g transform="">
				<rect x="-157.8" y="-219.8" width="84.5" height="84.5"/>
			</g>
		</g>
		<g transform="translate(576,684) scale(0.36,0.36)">
			<g transform="">
				<rect x="-173.3" y="-219.8" width="84.5" height="84.5"/>
			</g>
		</g>
		<g transform="translate(648,684) scale(0.36,0.36)">
			<g transform="">
				<rect x="-204.3" y="-219.8" width="84.5" height="84.5"/>
			</g>
		</g>
		<g transform="translate(756,684) scale(0.36,0.36)">
			<g transform="">
				<rect x="-250.9" y="-219.8" width="84.5" height="84.5"/>
			</g>
		</g>
		<g transform="translate(792,684) scale(0.36,0.36)">
			<g transform="">
				<rect x="-266.4" y="-219.8" width="84.5" height="84.5"/>
			</g>
		</g>
		<g transform="translate(0,720) scale(0.36,0.36)">
			<g transform="">
				<rect x="75" y="-235.3" width="84.5" height="84.5"/>
			</g>
		</g>
		<g transform="translate(36,720) scale(0.36,0.36)">
			<g transform="">
				<rect x="59.5" y="-235.3" width="84.5" height="84.5"/>
			</g>
		</g>
		<g transform="translate(144,720) scale(0.36,0.36)">
			<g transform="">
				<rect x="12.9" y="-235.3" width="84.5" height="84.5"/>
			</g>
		</g>
		<g transform="translate(216,720) scale(0.36,0.36)">
			<g transform="">
				<rect x="-18.1" y="-235.3" width="84.5" height="84.5"/>
			</g>
		</g>
		<g transform="translate(288,720) scale(0.36,0.36)">
			<g transform="">
				<rect x="-49.1" y="-235.3" width="84.5" height="84.5"/>
			</g>
		</g>
		<g transform="translate(396,720) scale(0.36,0.36)">
			<g transform="">
				<rect x="-95.7" y="-235.3" width="84.5" height="84.5"/>
			</g>
		</g>
		<g transform="translate(432,720) scale(0.36,0.36)">
			<g transform="">
				<rect x="-111.2" y="-235.3" width="84.5" height="84.5"/>
			</g>
		</g>
		<g transform="translate(468,720) scale(0.36,0.36)">
			<g transform="">
				<rect x="-126.7" y="-235.3" width="84.5" height="84.5"/>
			</g>
		</g>
		<g transform="translate(504,720) scale(0.36,0.36)">
			<g transform="">
				<rect x="-142.2" y="-235.3" width="84.5" height="84.5"/>
			</g>
		</g>
		<g transform="translate(684,720) scale(0.36,0.36)">
			<g transform="">
				<rect x="-219.8" y="-235.3" width="84.5" height="84.5"/>
			</g>
		</g>
		<g transform="translate(720,720) scale(0.36,0.36)">
			<g transform="">
				<rect x="-235.3" y="-235.3" width="84.5" height="84.5"/>
			</g>
		</g>
		<g transform="translate(756,720) scale(0.36,0.36)">
			<g transform="">
				<rect x="-250.9" y="-235.3" width="84.5" height="84.5"/>
			</g>
		</g>
		<g transform="translate(792,720) scale(0.36,0.36)">
			<g transform="">
				<rect x="-266.4" y="-235.3" width="84.5" height="84.5"/>
			</g>
		</g>
		<g transform="translate(828,720) scale(0.36,0.36)">
			<g transform="">
				<rect x="-281.9" y="-235.3" width="84.5" height="84.5"/>
			</g>
		</g>
		<g transform="translate(864,720) scale(0.36,0.36)">
			<g transform="">
				<rect x="-297.4" y="-235.3" width="84.5" height="84.5"/>
			</g>
		</g>
		<g transform="translate(900,720) scale(0.36,0.36)">
			<g transform="">
				<rect x="-312.9" y="-235.3" width="84.5" height="84.5"/>
			</g>
		</g>
		<g transform="translate(972,720) scale(0.36,0.36)">
			<g transform="">
				<rect x="-344" y="-235.3" width="84.5" height="84.5"/>
			</g>
		</g>
		<g transform="translate(288,756) scale(0.36,0.36)">
			<g transform="">
				<rect x="-49.1" y="-250.9" width="84.5" height="84.5"/>
			</g>
		</g>
		<g transform="translate(324,756) scale(0.36,0.36)">
			<g transform="">
				<rect x="-64.7" y="-250.9" width="84.5" height="84.5"/>
			</g>
		</g>
		<g transform="translate(360,756) scale(0.36,0.36)">
			<g transform="">
				<rect x="-80.2" y="-250.9" width="84.5" height="84.5"/>
			</g>
		</g>
		<g transform="translate(396,756) scale(0.36,0.36)">
			<g transform="">
				<rect x="-95.7" y="-250.9" width="84.5" height="84.5"/>
			</g>
		</g>
		<g transform="translate(468,756) scale(0.36,0.36)">
			<g transform="">
				<rect x="-126.7" y="-250.9" width="84.5" height="84.5"/>
			</g>
		</g>
		<g transform="translate(504,756) scale(0.36,0.36)">
			<g transform="">
				<rect x="-142.2" y="-250.9" width="84.5" height="84.5"/>
			</g>
		</g>
		<g transform="translate(648,756) scale(0.36,0.36)">
			<g transform="">
				<rect x="-204.3" y="-250.9" width="84.5" height="84.5"/>
			</g>
		</g>
		<g transform="translate(720,756) scale(0.36,0.36)">
			<g transform="">
				<rect x="-235.3" y="-250.9" width="84.5" height="84.5"/>
			</g>
		</g>
		<g transform="translate(864,756) scale(0.36,0.36)">
			<g transform="">
				<rect x="-297.4" y="-250.9" width="84.5" height="84.5"/>
			</g>
		</g>
		<g transform="translate(900,756) scale(0.36,0.36)">
			<g transform="">
				<rect x="-312.9" y="-250.9" width="84.5" height="84.5"/>
			</g>
		</g>
		<g transform="translate(936,756) scale(0.36,0.36)">
			<g transform="">
				<rect x="-328.4" y="-250.9" width="84.5" height="84.5"/>
			</g>
		</g>
		<g transform="translate(1008,756) scale(0.36,0.36)">
			<g transform="">
				<rect x="-359.5" y="-250.9" width="84.5" height="84.5"/>
			</g>
		</g>
		<g transform="translate(288,792) scale(0.36,0.36)">
			<g transform="">
				<rect x="-49.1" y="-266.4" width="84.5" height="84.5"/>
			</g>
		</g>
		<g transform="translate(432,792) scale(0.36,0.36)">
			<g transform="">
				<rect x="-111.2" y="-266.4" width="84.5" height="84.5"/>
			</g>
		</g>
		<g transform="translate(540,792) scale(0.36,0.36)">
			<g transform="">
				<rect x="-157.8" y="-266.4" width="84.5" height="84.5"/>
			</g>
		</g>
		<g transform="translate(612,792) scale(0.36,0.36)">
			<g transform="">
				<rect x="-188.8" y="-266.4" width="84.5" height="84.5"/>
			</g>
		</g>
		<g transform="translate(648,792) scale(0.36,0.36)">
			<g transform="">
				<rect x="-204.3" y="-266.4" width="84.5" height="84.5"/>
			</g>
		</g>
		<g transform="translate(720,792) scale(0.36,0.36)">
			<g transform="">
				<rect x="-235.3" y="-266.4" width="84.5" height="84.5"/>
			</g>
		</g>
		<g transform="translate(792,792) scale(0.36,0.36)">
			<g transform="">
				<rect x="-266.4" y="-266.4" width="84.5" height="84.5"/>
			</g>
		</g>
		<g transform="translate(864,792) scale(0.36,0.36)">
			<g transform="">
				<rect x="-297.4" y="-266.4" width="84.5" height="84.5"/>
			</g>
		</g>
		<g transform="translate(1008,792) scale(0.36,0.36)">
			<g transform="">
				<rect x="-359.5" y="-266.4" width="84.5" height="84.5"/>
			</g>
		</g>
		<g transform="translate(324,828) scale(0.36,0.36)">
			<g transform="">
				<rect x="-64.7" y="-281.9" width="84.5" height="84.5"/>
			</g>
		</g>
		<g transform="translate(468,828) scale(0.36,0.36)">
			<g transform="">
				<rect x="-126.7" y="-281.9" width="84.5" height="84.5"/>
			</g>
		</g>
		<g transform="translate(684,828) scale(0.36,0.36)">
			<g transform="">
				<rect x="-219.8" y="-281.9" width="84.5" height="84.5"/>
			</g>
		</g>
		<g transform="translate(720,828) scale(0.36,0.36)">
			<g transform="">
				<rect x="-235.3" y="-281.9" width="84.5" height="84.5"/>
			</g>
		</g>
		<g transform="translate(864,828) scale(0.36,0.36)">
			<g transform="">
				<rect x="-297.4" y="-281.9" width="84.5" height="84.5"/>
			</g>
		</g>
		<g transform="translate(900,828) scale(0.36,0.36)">
			<g transform="">
				<rect x="-312.9" y="-281.9" width="84.5" height="84.5"/>
			</g>
		</g>
		<g transform="translate(972,828) scale(0.36,0.36)">
			<g transform="">
				<rect x="-344" y="-281.9" width="84.5" height="84.5"/>
			</g>
		</g>
		<g transform="translate(324,864) scale(0.36,0.36)">
			<g transform="">
				<rect x="-64.7" y="-297.4" width="84.5" height="84.5"/>
			</g>
		</g>
		<g transform="translate(396,864) scale(0.36,0.36)">
			<g transform="">
				<rect x="-95.7" y="-297.4" width="84.5" height="84.5"/>
			</g>
		</g>
		<g transform="translate(432,864) scale(0.36,0.36)">
			<g transform="">
				<rect x="-111.2" y="-297.4" width="84.5" height="84.5"/>
			</g>
		</g>
		<g transform="translate(468,864) scale(0.36,0.36)">
			<g transform="">
				<rect x="-126.7" y="-297.4" width="84.5" height="84.5"/>
			</g>
		</g>
		<g transform="translate(540,864) scale(0.36,0.36)">
			<g transform="">
				<rect x="-157.8" y="-297.4" width="84.5" height="84.5"/>
			</g>
		</g>
		<g transform="translate(576,864) scale(0.36,0.36)">
			<g transform="">
				<rect x="-173.3" y="-297.4" width="84.5" height="84.5"/>
			</g>
		</g>
		<g transform="translate(648,864) scale(0.36,0.36)">
			<g transform="">
				<rect x="-204.3" y="-297.4" width="84.5" height="84.5"/>
			</g>
		</g>
		<g transform="translate(684,864) scale(0.36,0.36)">
			<g transform="">
				<rect x="-219.8" y="-297.4" width="84.5" height="84.5"/>
			</g>
		</g>
		<g transform="translate(720,864) scale(0.36,0.36)">
			<g transform="">
				<rect x="-235.3" y="-297.4" width="84.5" height="84.5"/>
			</g>
		</g>
		<g transform="translate(756,864) scale(0.36,0.36)">
			<g transform="">
				<rect x="-250.9" y="-297.4" width="84.5" height="84.5"/>
			</g>
		</g>
		<g transform="translate(792,864) scale(0.36,0.36)">
			<g transform="">
				<rect x="-266.4" y="-297.4" width="84.5" height="84.5"/>
			</g>
		</g>
		<g transform="translate(828,864) scale(0.36,0.36)">
			<g transform="">
				<rect x="-281.9" y="-297.4" width="84.5" height="84.5"/>
			</g>
		</g>
		<g transform="translate(864,864) scale(0.36,0.36)">
			<g transform="">
				<rect x="-297.4" y="-297.4" width="84.5" height="84.5"/>
			</g>
		</g>
		<g transform="translate(900,864) scale(0.36,0.36)">
			<g transform="">
				<rect x="-312.9" y="-297.4" width="84.5" height="84.5"/>
			</g>
		</g>
		<g transform="translate(324,900) scale(0.36,0.36)">
			<g transform="">
				<rect x="-64.7" y="-312.9" width="84.5" height="84.5"/>
			</g>
		</g>
		<g transform="translate(396,900) scale(0.36,0.36)">
			<g transform="">
				<rect x="-95.7" y="-312.9" width="84.5" height="84.5"/>
			</g>
		</g>
		<g transform="translate(576,900) scale(0.36,0.36)">
			<g transform="">
				<rect x="-173.3" y="-312.9" width="84.5" height="84.5"/>
			</g>
		</g>
		<g transform="translate(612,900) scale(0.36,0.36)">
			<g transform="">
				<rect x="-188.8" y="-312.9" width="84.5" height="84.5"/>
			</g>
		</g>
		<g transform="translate(684,900) scale(0.36,0.36)">
			<g transform="">
				<rect x="-219.8" y="-312.9" width="84.5" height="84.5"/>
			</g>
		</g>
		<g transform="translate(720,900) scale(0.36,0.36)">
			<g transform="">
				<rect x="-235.3" y="-312.9" width="84.5" height="84.5"/>
			</g>
		</g>
		<g transform="translate(756,900) scale(0.36,0.36)">
			<g transform="">
				<rect x="-250.9" y="-312.9" width="84.5" height="84.5"/>
			</g>
		</g>
		<g transform="translate(864,900) scale(0.36,0.36)">
			<g transform="">
				<rect x="-297.4" y="-312.9" width="84.5" height="84.5"/>
			</g>
		</g>
		<g transform="translate(900,900) scale(0.36,0.36)">
			<g transform="">
				<rect x="-312.9" y="-312.9" width="84.5" height="84.5"/>
			</g>
		</g>
		<g transform="translate(936,900) scale(0.36,0.36)">
			<g transform="">
				<rect x="-328.4" y="-312.9" width="84.5" height="84.5"/>
			</g>
		</g>
		<g transform="translate(972,900) scale(0.36,0.36)">
			<g transform="">
				<rect x="-344" y="-312.9" width="84.5" height="84.5"/>
			</g>
		</g>
		<g transform="translate(288,936) scale(0.36,0.36)">
			<g transform="">
				<rect x="-49.1" y="-328.4" width="84.5" height="84.5"/>
			</g>
		</g>
		<g transform="translate(360,936) scale(0.36,0.36)">
			<g transform="">
				<rect x="-80.2" y="-328.4" width="84.5" height="84.5"/>
			</g>
		</g>
		<g transform="translate(396,936) scale(0.36,0.36)">
			<g transform="">
				<rect x="-95.7" y="-328.4" width="84.5" height="84.5"/>
			</g>
		</g>
		<g transform="translate(576,936) scale(0.36,0.36)">
			<g transform="">
				<rect x="-173.3" y="-328.4" width="84.5" height="84.5"/>
			</g>
		</g>
		<g transform="translate(864,936) scale(0.36,0.36)">
			<g transform="">
				<rect x="-297.4" y="-328.4" width="84.5" height="84.5"/>
			</g>
		</g>
		<g transform="translate(900,936) scale(0.36,0.36)">
			<g transform="">
				<rect x="-312.9" y="-328.4" width="84.5" height="84.5"/>
			</g>
		</g>
		<g transform="translate(936,936) scale(0.36,0.36)">
			<g transform="">
				<rect x="-328.4" y="-328.4" width="84.5" height="84.5"/>
			</g>
		</g>
		<g transform="translate(972,936) scale(0.36,0.36)">
			<g transform="">
				<rect x="-344" y="-328.4" width="84.5" height="84.5"/>
			</g>
		</g>
		<g transform="translate(1008,936) scale(0.36,0.36)">
			<g transform="">
				<rect x="-359.5" y="-328.4" width="84.5" height="84.5"/>
			</g>
		</g>
		<g transform="translate(360,972) scale(0.36,0.36)">
			<g transform="">
				<rect x="-80.2" y="-344" width="84.5" height="84.5"/>
			</g>
		</g>
		<g transform="translate(396,972) scale(0.36,0.36)">
			<g transform="">
				<rect x="-95.7" y="-344" width="84.5" height="84.5"/>
			</g>
		</g>
		<g transform="translate(504,972) scale(0.36,0.36)">
			<g transform="">
				<rect x="-142.2" y="-344" width="84.5" height="84.5"/>
			</g>
		</g>
		<g transform="translate(540,972) scale(0.36,0.36)">
			<g transform="">
				<rect x="-157.8" y="-344" width="84.5" height="84.5"/>
			</g>
		</g>
		<g transform="translate(576,972) scale(0.36,0.36)">
			<g transform="">
				<rect x="-173.3" y="-344" width="84.5" height="84.5"/>
			</g>
		</g>
		<g transform="translate(648,972) scale(0.36,0.36)">
			<g transform="">
				<rect x="-204.3" y="-344" width="84.5" height="84.5"/>
			</g>
		</g>
		<g transform="translate(720,972) scale(0.36,0.36)">
			<g transform="">
				<rect x="-235.3" y="-344" width="84.5" height="84.5"/>
			</g>
		</g>
		<g transform="translate(756,972) scale(0.36,0.36)">
			<g transform="">
				<rect x="-250.9" y="-344" width="84.5" height="84.5"/>
			</g>
		</g>
		<g transform="translate(828,972) scale(0.36,0.36)">
			<g transform="">
				<rect x="-281.9" y="-344" width="84.5" height="84.5"/>
			</g>
		</g>
		<g transform="translate(864,972) scale(0.36,0.36)">
			<g transform="">
				<rect x="-297.4" y="-344" width="84.5" height="84.5"/>
			</g>
		</g>
		<g transform="translate(900,972) scale(0.36,0.36)">
			<g transform="">
				<rect x="-312.9" y="-344" width="84.5" height="84.5"/>
			</g>
		</g>
		<g transform="translate(288,1008) scale(0.36,0.36)">
			<g transform="">
				<rect x="-49.1" y="-359.5" width="84.5" height="84.5"/>
			</g>
		</g>
		<g transform="translate(324,1008) scale(0.36,0.36)">
			<g transform="">
				<rect x="-64.7" y="-359.5" width="84.5" height="84.5"/>
			</g>
		</g>
		<g transform="translate(396,1008) scale(0.36,0.36)">
			<g transform="">
				<rect x="-95.7" y="-359.5" width="84.5" height="84.5"/>
			</g>
		</g>
		<g transform="translate(468,1008) scale(0.36,0.36)">
			<g transform="">
				<rect x="-126.7" y="-359.5" width="84.5" height="84.5"/>
			</g>
		</g>
		<g transform="translate(504,1008) scale(0.36,0.36)">
			<g transform="">
				<rect x="-142.2" y="-359.5" width="84.5" height="84.5"/>
			</g>
		</g>
		<g transform="translate(576,1008) scale(0.36,0.36)">
			<g transform="">
				<rect x="-173.3" y="-359.5" width="84.5" height="84.5"/>
			</g>
		</g>
		<g transform="translate(612,1008) scale(0.36,0.36)">
			<g transform="">
				<rect x="-188.8" y="-359.5" width="84.5" height="84.5"/>
			</g>
		</g>
		<g transform="translate(648,1008) scale(0.36,0.36)">
			<g transform="">
				<rect x="-204.3" y="-359.5" width="84.5" height="84.5"/>
			</g>
		</g>
		<g transform="translate(684,1008) scale(0.36,0.36)">
			<g transform="">
				<rect x="-219.8" y="-359.5" width="84.5" height="84.5"/>
			</g>
		</g>
		<g transform="translate(720,1008) scale(0.36,0.36)">
			<g transform="">
				<rect x="-235.3" y="-359.5" width="84.5" height="84.5"/>
			</g>
		</g>
		<g transform="translate(756,1008) scale(0.36,0.36)">
			<g transform="">
				<rect x="-250.9" y="-359.5" width="84.5" height="84.5"/>
			</g>
		</g>
		<g transform="translate(792,1008) scale(0.36,0.36)">
			<g transform="">
				<rect x="-266.4" y="-359.5" width="84.5" height="84.5"/>
			</g>
		</g>
		<g transform="translate(900,1008) scale(0.36,0.36)">
			<g transform="">
				<rect x="-312.9" y="-359.5" width="84.5" height="84.5"/>
			</g>
		</g>
		<g transform="translate(1008,1008) scale(0.36,0.36)">
			<g transform="">
				<rect x="-359.5" y="-359.5" width="84.5" height="84.5"/>
			</g>
		</g>
		<g transform="translate(0,0) scale(2.52, 2.52)">
			<g transform="">
				<g>
					<rect x="23.4" y="23.4" class="st0" width="59.1" height="59.1"/>
					<path d="M82.5,10.7H23.4H10.7v12.7v59.1v12.7h12.7h59.1h12.7V82.5V23.4V10.7H82.5z M82.5,82.5H23.4V23.4h59.1V82.5z"/>
				</g>
			</g>
		</g>
		<g transform="translate(792,0) scale(2.52, 2.52)">
			<g transform="">
				<g>
					<rect x="-25.4" y="23.4" class="st0" width="59.1" height="59.1"/>
					<path d="M33.8,10.7h-59.1h-12.7v12.7v59.1v12.7h12.7h59.1h12.7V82.5V23.4V10.7H33.8z M33.8,82.5h-59.1V23.4h59.1V82.5z"/>
				</g>
			</g>
		</g>
		<g transform="translate(0,792) scale(2.52, 2.52)">
			<g transform="">
				<g>
					<rect x="23.4" y="-25.4" class="st0" width="59.1" height="59.1"/>
					<path d="M82.5-38.1H23.4H10.7v12.7v59.1v12.7h12.7h59.1h12.7V33.8v-59.1v-12.7H82.5z M82.5,33.8H23.4v-59.1h59.1V33.8z"/>
				</g>
			</g>
		</g>
		<g transform="translate(72,72) scale(1.08, 1.08)">
			<g transform="">
				<rect x="14.7" y="14.7" width="84.5" height="84.5"/>
			</g>
		</g>
		<g transform="translate(864,72) scale(1.08, 1.08)">
			<g transform="">
				<rect x="-99.1" y="14.7" width="84.5" height="84.5"/>
			</g>
		</g>
		<g transform="translate(72,864) scale(1.08, 1.08)">
			<g transform="">
				<rect x="14.7" y="-99.1" width="84.5" height="84.5"/>
			</g>
		</g>
	</g>
	<path class="st1" d="M921.9,1048.6H158.1c-70,0-126.7-56.7-126.7-126.7V158.1c0-70,56.7-126.7,126.7-126.7h763.8
		c70,0,126.7,56.7,126.7,126.7v763.8C1048.6,991.9,991.9,1048.6,921.9,1048.6z"/>
</g>
</svg>
