<?xml version="1.0" encoding="utf-8"?>
<!-- Generator: Adobe Illustrator 26.0.3, SVG Export Plug-In . SVG Version: 6.00 Build 0)  -->
<svg version="1.1" id="Layer_1" xmlns="http://www.w3.org/2000/svg" xmlns:xlink="http://www.w3.org/1999/xlink" x="0px" y="0px"
	 viewBox="0 0 640 512" style="enable-background:new 0 0 640 512;" xml:space="preserve">
<style type="text/css">
	.st0{fill:#FF0000;}
</style>
<path class="st0" d="M224,256c70.7,0,128-57.3,128-128S294.7,0,224,0S96,57.3,96,128S153.3,256,224,256z M274.7,304H173.3
	C77.6,304,0,381.6,0,477.3C0,496.5,15.5,512,34.7,512h378.6c19.2,0,34.7-15.5,34.7-34.7C448,381.6,370.4,304,274.7,304z M479.1,320
	h-73.9c46,37.7,74.8,94.1,74.8,157.3c0,12.8-3.8,24.6-10,34.7h138c17.7,0,32-14.4,32-32.9C640,391.6,568.4,320,479.1,320z M432,256
	c61.9,0,112-50.1,112-112S493.9,32,432,32c-25.1,0-48,8.6-66.7,22.5C376.8,76.6,384,101.4,384,128c0,35.5-11.9,68.1-31.6,94.7
	C372.7,243.2,400.8,256,432,256z"/>
</svg>
